<svg width="54" height="42" viewBox="0 0 54 42" fill="none" xmlns="http://www.w3.org/2000/svg">
<path d="M52.1992 9.684C52.8715 10.08 53.2842 10.8021 53.2842 11.5823V30.4177C53.2842 31.1979 52.8715 31.92 52.1992 32.316L36.2764 41.6952C35.5863 42.1016 34.7301 42.1016 34.04 41.6951L27.7603 37.9961C27.0702 37.5896 26.214 37.5896 25.5239 37.9961L19.2442 41.6951C18.5541 42.1016 17.6979 42.1016 17.0078 41.6952L1.08499 32.316C0.412694 31.92 0 31.1979 0 30.4177V11.5823C0 10.8021 0.412693 10.08 1.08499 9.684L17.0078 0.304849C17.6979 -0.101615 18.5541 -0.101616 19.2442 0.304848L25.5239 4.00385C26.214 4.41031 27.0702 4.41031 27.7603 4.00385L34.04 0.304848C34.7301 -0.101616 35.5863 -0.101616 36.2764 0.304849L52.1992 9.684Z" fill="#41DF82"/>
<path d="M24.4563 20.0353L35.154 25.4211V12.7885C35.154 12.3168 34.9199 11.8794 34.5376 11.6564L18.6666 2.34276C18.3233 2.14551 17.9098 2.14551 17.5664 2.34276L2.46799 11.1418C2.08565 11.3648 1.85156 11.8022 1.85156 12.2739V29.7177C1.85156 30.1894 2.09345 30.6268 2.46799 30.8497L17.5586 39.6574C17.902 39.8546 18.3077 39.8546 18.651 39.6574L26.6255 35.0006L18.6979 30.378C18.3311 30.1636 18.1048 29.7434 18.1048 29.2889V18.7574C18.1048 17.8655 18.9475 17.2652 19.6888 17.634L24.4485 20.0181L24.4563 20.0353Z" fill="black"/>
<path d="M50.811 11.1418L35.7048 2.3341C35.3614 2.13684 34.9557 2.13684 34.6124 2.3341L26.6145 6.9995L34.5733 11.6649C34.9323 11.8793 35.1586 12.291 35.1586 12.7455V24.4604C35.1586 24.8978 34.745 25.1894 34.3861 25.0093L18.7258 17.1622C18.4449 17.0164 18.1172 17.2479 18.1172 17.591V29.2716C18.1172 29.7433 18.3591 30.1807 18.7336 30.4037L34.6124 39.6573C34.9557 39.8545 35.3614 39.8545 35.7048 39.6573L50.8032 30.8496C51.1855 30.6267 51.4196 30.1893 51.4196 29.7176V12.2738C51.4196 11.8021 51.1777 11.3647 50.8032 11.1418H50.811Z" fill="#0047FF"/>
</svg>
