<svg width="42" height="42" viewBox="0 0 42 42" fill="none" xmlns="http://www.w3.org/2000/svg">
<path d="M0.603466 22.4569C-0.201155 21.6523 -0.201155 20.3477 0.603466 19.5431L19.5431 0.603466C20.3477 -0.201155 21.6523 -0.201155 22.4569 0.603466L41.3965 19.5431C42.2012 20.3477 42.2012 21.6523 41.3965 22.4569L22.4569 41.3965C21.6523 42.2012 20.3477 42.2012 19.5431 41.3965L0.603466 22.4569Z" fill="#6808FE"/>
<g clip-path="url(#clip0_1950_4459)">
<path d="M27.7541 29.925H14.2567C12.3559 29.925 11.0413 28.0032 11.7489 26.2362C12.553 24.2281 14.0004 22.4705 15.8524 21.3844C21.4593 18.0989 28.1214 20.794 30.266 26.2445C30.9612 28.0115 29.6508 29.925 27.7541 29.925Z" fill="#FF791F"/>
<path d="M20.5669 9.99987C26.5141 9.44276 27.0007 18.4168 21.261 18.6975C15.5669 18.976 15.0046 10.5216 20.5669 9.99987Z" fill="#FF791F"/>
</g>
<defs>
<clipPath id="clip0_1950_4459">
<rect width="18.9" height="19.95" fill="white" transform="translate(11.5547 9.97498)"/>
</clipPath>
</defs>
</svg>
