<svg width="52" height="52" viewBox="0 0 52 52" fill="none" xmlns="http://www.w3.org/2000/svg">
<path d="M46.5859 0.109375C46.5863 3.09959 49.01 5.52283 52 5.52441V46.583C49.0098 46.5846 46.5859 49.0095 46.5859 52H5.41895C5.41895 49.0086 2.9943 46.5832 0.00292969 46.583H0V5.52441L0.00292969 5.52539C2.99407 5.52521 5.41856 3.10045 5.41895 0.109375C5.41895 0.0728967 5.41673 0.0363066 5.41602 0H46.5889C46.5881 0.0363066 46.5859 0.0728967 46.5859 0.109375Z" fill="#FA69E5"/>
<path d="M27.3311 22.6963L38.5234 10.4395L41.5176 13.4336L29.2061 24.6748L45.8281 23.9414V28.0576L29.3047 27.3271L41.5156 38.4756L38.5205 41.4707L27.3271 29.21L28.0615 45.8252H23.9453L24.6787 29.2129L13.4873 41.4717L10.4922 38.4766L22.7041 27.3271L6.17969 28.0576V23.9414L22.792 24.6738L10.4814 13.4346L13.4766 10.4395L24.6748 22.7061L23.9453 6.1748H28.0615L27.3311 22.6963Z" fill="white"/>
</svg>
