<svg width="52" height="52" viewBox="0 0 52 52" fill="none" xmlns="http://www.w3.org/2000/svg">
<path d="M0.747148 27.8038C-0.249049 26.8076 -0.249049 25.1924 0.747148 24.1962L24.1962 0.747148C25.1924 -0.249049 26.8076 -0.249049 27.8038 0.747148L51.2529 24.1962C52.2491 25.1924 52.2491 26.8076 51.2529 27.8038L27.8038 51.2529C26.8076 52.2491 25.1924 52.2491 24.1962 51.2529L0.747148 27.8038Z" fill="#00E6A5"/>
<path d="M15.1274 15.7948C15.2533 13.9443 20.1953 12.7736 26.1646 13.1795C32.1333 13.5855 36.8702 15.4141 36.7446 17.2645C36.6719 18.3335 34.9917 19.1745 32.4351 19.617C35.0365 20.0119 36.7593 20.8301 36.8511 21.9071C36.9769 23.3903 33.9704 24.9116 29.6968 25.7176C33.8031 25.9208 36.7816 26.9456 36.8794 28.3768C36.9916 30.0285 33.2289 31.6617 28.1743 32.2821C33.1838 32.9949 36.8836 34.6856 36.7437 36.328C36.5859 38.1759 31.6259 39.2619 25.6646 38.7537C19.7036 38.2456 14.999 36.336 15.1558 34.4881C15.2475 33.4113 16.9699 32.5929 19.5708 32.1981C17.0146 31.7554 15.3348 30.9145 15.2622 29.8455C15.1658 28.4248 17.936 27.0175 21.9292 26.2567C18.1104 26.0569 15.3795 25.1096 15.2632 23.7459C15.1235 22.1035 18.8242 20.4125 23.8345 19.7C18.779 19.0795 15.0153 17.4467 15.1274 15.7948Z" fill="#0047FF"/>
</svg>
